<svg width="571" height="116" viewBox="0 0 571 116" fill="none" xmlns="http://www.w3.org/2000/svg">
<path d="M6.06818 93V23.1818H34.0227C39.1591 23.1818 43.4432 23.9432 46.875 25.4659C50.3068 26.9886 52.8864 29.1023 54.6136 31.8068C56.3409 34.4886 57.2045 37.5795 57.2045 41.0795C57.2045 43.8068 56.6591 46.2045 55.5682 48.2727C54.4773 50.3182 52.9773 52 51.0682 53.3182C49.1818 54.6136 47.0227 55.5341 44.5909 56.0795V56.7614C47.25 56.875 49.7386 57.625 52.0568 59.0114C54.3977 60.3977 56.2955 62.3409 57.75 64.8409C59.2045 67.3182 59.9318 70.2727 59.9318 73.7045C59.9318 77.4091 59.0114 80.7159 57.1705 83.625C55.3523 86.5114 52.6591 88.7955 49.0909 90.4773C45.5227 92.1591 41.125 93 35.8977 93H6.06818ZM20.8295 80.9318H32.8636C36.9773 80.9318 39.9773 80.1477 41.8636 78.5795C43.75 76.9886 44.6932 74.875 44.6932 72.2386C44.6932 70.3068 44.2273 68.6023 43.2955 67.125C42.3636 65.6477 41.0341 64.4886 39.3068 63.6477C37.6023 62.8068 35.5682 62.3864 33.2045 62.3864H20.8295V80.9318ZM20.8295 52.3977H31.7727C33.7955 52.3977 35.5909 52.0455 37.1591 51.3409C38.75 50.6136 40 49.5909 40.9091 48.2727C41.8409 46.9545 42.3068 45.375 42.3068 43.5341C42.3068 41.0114 41.4091 38.9773 39.6136 37.4318C37.8409 35.8864 35.3182 35.1136 32.0455 35.1136H20.8295V52.3977ZM73.1042 93V40.6364H87.1837V49.7727H87.7292C88.6837 46.5227 90.286 44.0682 92.536 42.4091C94.786 40.7273 97.3769 39.8864 100.309 39.8864C101.036 39.8864 101.82 39.9318 102.661 40.0227C103.502 40.1136 104.241 40.2386 104.877 40.3977V53.2841C104.195 53.0795 103.252 52.8977 102.047 52.7386C100.843 52.5795 99.7406 52.5 98.7406 52.5C96.6042 52.5 94.6951 52.9659 93.0133 53.8977C91.3542 54.8068 90.036 56.0795 89.0587 57.7159C88.1042 59.3523 87.6269 61.2386 87.6269 63.375V93H73.1042ZM116.225 93V40.6364H130.748V93H116.225ZM123.521 33.8864C121.362 33.8864 119.51 33.1705 117.964 31.7386C116.441 30.2841 115.68 28.5455 115.68 26.5227C115.68 24.5227 116.441 22.8068 117.964 21.375C119.51 19.9205 121.362 19.1932 123.521 19.1932C125.68 19.1932 127.521 19.9205 129.044 21.375C130.589 22.8068 131.362 24.5227 131.362 26.5227C131.362 28.5455 130.589 30.2841 129.044 31.7386C127.521 33.1705 125.68 33.8864 123.521 33.8864ZM189.79 55.5682L176.494 56.3864C176.267 55.25 175.779 54.2273 175.029 53.3182C174.279 52.3864 173.29 51.6477 172.063 51.1023C170.858 50.5341 169.415 50.25 167.733 50.25C165.483 50.25 163.585 50.7273 162.04 51.6818C160.494 52.6136 159.722 53.8636 159.722 55.4318C159.722 56.6818 160.222 57.7386 161.222 58.6023C162.222 59.4659 163.938 60.1591 166.369 60.6818L175.847 62.5909C180.938 63.6364 184.733 65.3182 187.233 67.6364C189.733 69.9545 190.983 73 190.983 76.7727C190.983 80.2045 189.972 83.2159 187.949 85.8068C185.949 88.3977 183.199 90.4205 179.699 91.875C176.222 93.3068 172.21 94.0227 167.665 94.0227C160.733 94.0227 155.21 92.5795 151.097 89.6932C147.006 86.7841 144.608 82.8295 143.904 77.8295L158.188 77.0795C158.619 79.1932 159.665 80.8068 161.324 81.9205C162.983 83.0114 165.108 83.5568 167.699 83.5568C170.244 83.5568 172.29 83.0682 173.835 82.0909C175.404 81.0909 176.199 79.8068 176.222 78.2386C176.199 76.9205 175.642 75.8409 174.551 75C173.46 74.1364 171.779 73.4773 169.506 73.0227L160.438 71.2159C155.324 70.1932 151.517 68.4205 149.017 65.8977C146.54 63.375 145.301 60.1591 145.301 56.25C145.301 52.8864 146.21 49.9886 148.029 47.5568C149.869 45.125 152.449 43.25 155.767 41.9318C159.108 40.6136 163.017 39.9545 167.494 39.9545C174.108 39.9545 179.313 41.3523 183.108 44.1477C186.926 46.9432 189.154 50.75 189.79 55.5682ZM217.127 77.9318L217.161 60.5114H219.275L236.048 40.6364H252.718L230.184 66.9545H226.741L217.127 77.9318ZM203.968 93V23.1818H218.491V93H203.968ZM236.695 93L221.286 70.1932L230.968 59.9318L253.707 93H236.695Z" fill="black"/>
<path d="M356.909 53.0455L348.045 53.5909C347.894 52.8333 347.568 52.1515 347.068 51.5455C346.568 50.9242 345.909 50.4318 345.091 50.0682C344.288 49.6894 343.326 49.5 342.205 49.5C340.705 49.5 339.439 49.8182 338.409 50.4545C337.379 51.0758 336.864 51.9091 336.864 52.9545C336.864 53.7879 337.197 54.4924 337.864 55.0682C338.53 55.6439 339.674 56.1061 341.295 56.4545L347.614 57.7273C351.008 58.4242 353.538 59.5455 355.205 61.0909C356.871 62.6364 357.705 64.6667 357.705 67.1818C357.705 69.4697 357.03 71.4773 355.682 73.2045C354.348 74.9318 352.515 76.2803 350.182 77.25C347.864 78.2045 345.189 78.6818 342.159 78.6818C337.538 78.6818 333.856 77.7197 331.114 75.7955C328.386 73.8561 326.788 71.2197 326.318 67.8864L335.841 67.3864C336.129 68.7955 336.826 69.8712 337.932 70.6136C339.038 71.3409 340.455 71.7045 342.182 71.7045C343.879 71.7045 345.242 71.3788 346.273 70.7273C347.318 70.0606 347.848 69.2045 347.864 68.1591C347.848 67.2803 347.477 66.5606 346.75 66C346.023 65.4242 344.902 64.9848 343.386 64.6818L337.341 63.4773C333.932 62.7955 331.394 61.6136 329.727 59.9318C328.076 58.25 327.25 56.1061 327.25 53.5C327.25 51.2576 327.856 49.3258 329.068 47.7045C330.295 46.0833 332.015 44.8333 334.227 43.9545C336.455 43.0758 339.061 42.6364 342.045 42.6364C346.455 42.6364 349.924 43.5682 352.455 45.4318C355 47.2955 356.485 49.8333 356.909 53.0455ZM384.929 43.0909V50.3636H363.907V43.0909H384.929ZM368.679 34.7273H378.361V67.2727C378.361 68.1667 378.498 68.8636 378.77 69.3636C379.043 69.8485 379.422 70.1894 379.907 70.3864C380.407 70.5833 380.982 70.6818 381.634 70.6818C382.088 70.6818 382.543 70.6439 382.998 70.5682C383.452 70.4773 383.801 70.4091 384.043 70.3636L385.566 77.5682C385.081 77.7197 384.399 77.8939 383.52 78.0909C382.641 78.303 381.573 78.4318 380.316 78.4773C377.982 78.5682 375.937 78.2576 374.179 77.5455C372.437 76.8333 371.081 75.7273 370.111 74.2273C369.141 72.7273 368.664 70.8333 368.679 68.5455V34.7273ZM403.751 78.6591C401.523 78.6591 399.539 78.2727 397.796 77.5C396.054 76.7121 394.675 75.553 393.66 74.0227C392.66 72.4773 392.16 70.553 392.16 68.25C392.16 66.3106 392.516 64.6818 393.228 63.3636C393.94 62.0455 394.91 60.9848 396.137 60.1818C397.364 59.3788 398.758 58.7727 400.319 58.3636C401.895 57.9545 403.546 57.6667 405.273 57.5C407.304 57.2879 408.94 57.0909 410.183 56.9091C411.425 56.7121 412.326 56.4242 412.887 56.0455C413.448 55.6667 413.728 55.1061 413.728 54.3636V54.2273C413.728 52.7879 413.273 51.6742 412.364 50.8864C411.47 50.0985 410.198 49.7045 408.546 49.7045C406.804 49.7045 405.417 50.0909 404.387 50.8636C403.357 51.6212 402.675 52.5758 402.342 53.7273L393.387 53C393.842 50.8788 394.736 49.0455 396.069 47.5C397.402 45.9394 399.122 44.7424 401.228 43.9091C403.349 43.0606 405.804 42.6364 408.592 42.6364C410.531 42.6364 412.387 42.8636 414.16 43.3182C415.948 43.7727 417.531 44.4773 418.91 45.4318C420.304 46.3864 421.402 47.6136 422.205 49.1136C423.008 50.5985 423.41 52.3788 423.41 54.4545V78H414.228V73.1591H413.955C413.395 74.25 412.645 75.2121 411.705 76.0455C410.766 76.8636 409.637 77.5076 408.319 77.9773C407.001 78.4318 405.478 78.6591 403.751 78.6591ZM406.523 71.9773C407.948 71.9773 409.205 71.697 410.296 71.1364C411.387 70.5606 412.243 69.7879 412.864 68.8182C413.486 67.8485 413.796 66.75 413.796 65.5227V61.8182C413.493 62.0152 413.076 62.197 412.546 62.3636C412.031 62.5152 411.448 62.6591 410.796 62.7955C410.145 62.9167 409.493 63.0303 408.842 63.1364C408.19 63.2273 407.599 63.3106 407.069 63.3864C405.933 63.553 404.94 63.8182 404.092 64.1818C403.243 64.5455 402.584 65.0379 402.114 65.6591C401.645 66.2652 401.41 67.0227 401.41 67.9318C401.41 69.25 401.887 70.2576 402.842 70.9545C403.811 71.6364 405.039 71.9773 406.523 71.9773ZM433.481 78V43.0909H442.868V49.1818H443.231C443.868 47.0152 444.936 45.3788 446.436 44.2727C447.936 43.1515 449.663 42.5909 451.618 42.5909C452.102 42.5909 452.625 42.6212 453.186 42.6818C453.746 42.7424 454.239 42.8258 454.663 42.9318V51.5227C454.208 51.3864 453.58 51.2652 452.777 51.1591C451.974 51.053 451.239 51 450.572 51C449.148 51 447.875 51.3106 446.754 51.9318C445.648 52.5379 444.769 53.3864 444.118 54.4773C443.481 55.5682 443.163 56.8258 443.163 58.25V78H433.481ZM482.547 43.0909V50.3636H461.524V43.0909H482.547ZM466.297 34.7273H475.979V67.2727C475.979 68.1667 476.115 68.8636 476.388 69.3636C476.66 69.8485 477.039 70.1894 477.524 70.3864C478.024 70.5833 478.6 70.6818 479.251 70.6818C479.706 70.6818 480.16 70.6439 480.615 70.5682C481.07 70.4773 481.418 70.4091 481.66 70.3636L483.183 77.5682C482.698 77.7197 482.017 77.8939 481.138 78.0909C480.259 78.303 479.191 78.4318 477.933 78.4773C475.6 78.5682 473.554 78.2576 471.797 77.5455C470.054 76.8333 468.698 75.7273 467.729 74.2273C466.759 72.7273 466.282 70.8333 466.297 68.5455V34.7273ZM513.8 63.1364V43.0909H523.482V78H514.186V71.6591H513.823C513.035 73.7045 511.724 75.3485 509.891 76.5909C508.073 77.8333 505.853 78.4545 503.232 78.4545C500.898 78.4545 498.845 77.9242 497.073 76.8636C495.3 75.803 493.914 74.2955 492.914 72.3409C491.929 70.3864 491.429 68.0455 491.414 65.3182V43.0909H501.095V63.5909C501.111 65.6515 501.664 67.2803 502.755 68.4773C503.845 69.6742 505.308 70.2727 507.141 70.2727C508.308 70.2727 509.398 70.0076 510.414 69.4773C511.429 68.9318 512.247 68.1288 512.868 67.0682C513.505 66.0076 513.815 64.697 513.8 63.1364ZM533.786 91.0909V43.0909H543.332V48.9545H543.763C544.188 48.0152 544.801 47.0606 545.604 46.0909C546.423 45.1061 547.483 44.2879 548.786 43.6364C550.104 42.9697 551.741 42.6364 553.695 42.6364C556.241 42.6364 558.589 43.303 560.741 44.6364C562.892 45.9545 564.612 47.947 565.9 50.6136C567.188 53.2652 567.832 56.5909 567.832 60.5909C567.832 64.4848 567.203 67.7727 565.945 70.4545C564.703 73.1212 563.006 75.1439 560.854 76.5227C558.718 77.8864 556.324 78.5682 553.673 78.5682C551.794 78.5682 550.195 78.2576 548.877 77.6364C547.574 77.0152 546.506 76.2348 545.673 75.2955C544.839 74.3409 544.203 73.3788 543.763 72.4091H543.468V91.0909H533.786ZM543.263 60.5455C543.263 62.6212 543.551 64.4318 544.127 65.9773C544.703 67.5227 545.536 68.7273 546.627 69.5909C547.718 70.4394 549.044 70.8636 550.604 70.8636C552.18 70.8636 553.513 70.4318 554.604 69.5682C555.695 68.6894 556.521 67.4773 557.082 65.9318C557.657 64.3712 557.945 62.5758 557.945 60.5455C557.945 58.5303 557.665 56.7576 557.104 55.2273C556.544 53.697 555.718 52.5 554.627 51.6364C553.536 50.7727 552.195 50.3409 550.604 50.3409C549.029 50.3409 547.695 50.7576 546.604 51.5909C545.529 52.4242 544.703 53.6061 544.127 55.1364C543.551 56.6667 543.263 58.4697 543.263 60.5455Z" fill="#4C55E7"/>
<rect x="289" y="7" width="6" height="98" rx="1" fill="black"/>
<ellipse cx="123.5" cy="26.5" rx="8.5" ry="7.5" fill="#4C55E7"/>
</svg>
