<svg width="256" height="256" viewBox="0 0 256 256" fill="none" xmlns="http://www.w3.org/2000/svg">
<path d="M122 40V16C122 14.4087 122.632 12.8826 123.757 11.7574C124.883 10.6321 126.409 10 128 10C129.591 10 131.117 10.6321 132.243 11.7574C133.368 12.8826 134 14.4087 134 16V40C134 41.5913 133.368 43.1174 132.243 44.2426C131.117 45.3679 129.591 46 128 46C126.409 46 124.883 45.3679 123.757 44.2426C122.632 43.1174 122 41.5913 122 40ZM190 128C190 140.262 186.364 152.25 179.551 162.445C172.738 172.641 163.055 180.588 151.726 185.281C140.397 189.973 127.931 191.201 115.904 188.809C103.878 186.416 92.8302 180.511 84.1594 171.841C75.4885 163.17 69.5836 152.122 67.1913 140.096C64.799 128.069 66.0268 115.603 70.7195 104.274C75.4121 92.9446 83.3588 83.2615 93.5546 76.4489C103.75 69.6362 115.738 66 128 66C144.438 66.0185 160.197 72.5566 171.82 84.1798C183.443 95.8031 189.981 111.562 190 128ZM178 128C178 118.111 175.068 108.444 169.573 100.221C164.079 91.999 156.27 85.5904 147.134 81.806C137.998 78.0216 127.945 77.0315 118.245 78.9607C108.546 80.89 99.6373 85.652 92.6447 92.6447C85.652 99.6373 80.89 108.546 78.9607 118.245C77.0315 127.945 78.0216 137.998 81.806 147.134C85.5904 156.27 91.999 164.079 100.221 169.573C108.444 175.068 118.111 178 128 178C141.256 177.984 153.964 172.711 163.338 163.338C172.711 153.964 177.984 141.256 178 128ZM59.76 68.24C60.3093 68.8295 60.9717 69.3023 61.7077 69.6302C62.4437 69.9582 63.2382 70.1345 64.0438 70.1487C64.8494 70.1629 65.6497 70.0148 66.3968 69.713C67.1439 69.4112 67.8226 68.9621 68.3923 68.3923C68.9621 67.8226 69.4112 67.1439 69.713 66.3968C70.0148 65.6497 70.1629 64.8494 70.1487 64.0438C70.1345 63.2382 69.9582 62.4437 69.6302 61.7077C69.3023 60.9717 68.8295 60.3093 68.24 59.76L52.24 43.76C51.1026 42.7002 49.5982 42.1232 48.0438 42.1506C46.4894 42.178 45.0063 42.8077 43.907 43.907C42.8077 45.0063 42.178 46.4894 42.1506 48.0438C42.1232 49.5982 42.7002 51.1026 43.76 52.24L59.76 68.24ZM59.76 187.76L43.76 203.76C43.1705 204.309 42.6977 204.972 42.3698 205.708C42.0418 206.444 41.8655 207.238 41.8513 208.044C41.8371 208.849 41.9852 209.65 42.287 210.397C42.5888 211.144 43.0379 211.823 43.6077 212.392C44.1774 212.962 44.8561 213.411 45.6032 213.713C46.3503 214.015 47.1506 214.163 47.9562 214.149C48.7618 214.135 49.5563 213.958 50.2923 213.63C51.0283 213.302 51.6907 212.829 52.24 212.24L68.24 196.24C68.8295 195.691 69.3023 195.028 69.6302 194.292C69.9582 193.556 70.1345 192.762 70.1487 191.956C70.1629 191.151 70.0148 190.35 69.713 189.603C69.4112 188.856 68.9621 188.177 68.3923 187.608C67.8226 187.038 67.1439 186.589 66.3968 186.287C65.6497 185.985 64.8494 185.837 64.0438 185.851C63.2382 185.865 62.4437 186.042 61.7077 186.37C60.9717 186.698 60.3093 187.171 59.76 187.76ZM192 70C193.591 69.9986 195.116 69.3655 196.24 68.24L212.24 52.24C213.3 51.1026 213.877 49.5982 213.849 48.0438C213.822 46.4894 213.192 45.0063 212.093 43.907C210.994 42.8077 209.511 42.178 207.956 42.1506C206.402 42.1232 204.897 42.7002 203.76 43.76L187.76 59.76C186.922 60.5991 186.351 61.6677 186.12 62.8309C185.889 63.9941 186.008 65.1997 186.462 66.2954C186.915 67.3911 187.684 68.3278 188.669 68.9871C189.655 69.6465 190.814 69.999 192 70ZM196.24 187.76C195.103 186.7 193.598 186.123 192.044 186.151C190.489 186.178 189.006 186.808 187.907 187.907C186.808 189.006 186.178 190.489 186.151 192.044C186.123 193.598 186.7 195.103 187.76 196.24L203.76 212.24C204.897 213.3 206.402 213.877 207.956 213.849C209.511 213.822 210.994 213.192 212.093 212.093C213.192 210.994 213.822 209.511 213.849 207.956C213.877 206.402 213.3 204.897 212.24 203.76L196.24 187.76ZM46 128C46 126.409 45.3679 124.883 44.2426 123.757C43.1174 122.632 41.5913 122 40 122H16C14.4087 122 12.8826 122.632 11.7574 123.757C10.6321 124.883 10 126.409 10 128C10 129.591 10.6321 131.117 11.7574 132.243C12.8826 133.368 14.4087 134 16 134H40C41.5913 134 43.1174 133.368 44.2426 132.243C45.3679 131.117 46 129.591 46 128ZM128 210C126.409 210 124.883 210.632 123.757 211.757C122.632 212.883 122 214.409 122 216V240C122 241.591 122.632 243.117 123.757 244.243C124.883 245.368 126.409 246 128 246C129.591 246 131.117 245.368 132.243 244.243C133.368 243.117 134 241.591 134 240V216C134 214.409 133.368 212.883 132.243 211.757C131.117 210.632 129.591 210 128 210ZM240 122H216C214.409 122 212.883 122.632 211.757 123.757C210.632 124.883 210 126.409 210 128C210 129.591 210.632 131.117 211.757 132.243C212.883 133.368 214.409 134 216 134H240C241.591 134 243.117 133.368 244.243 132.243C245.368 131.117 246 129.591 246 128C246 126.409 245.368 124.883 244.243 123.757C243.117 122.632 241.591 122 240 122Z" fill="#4C55E7"/>
</svg>
